# xmcd
#
# Track frame offsets: 
#        150
#        13141
#        26349
#        39707
#        51804
#        62132
#        74830
#        87063
#        98824
#        109326
#        121980
#        134396
#        145272
#        156831
#        169870
#        183886
#        194031
#        206275
#        218651
#        230634
#
# Disc length: 3243 seconds
#
# Revision: 0
# Processed by: cddbd v1.5.2PL0 Copyright (c) Steve Scherf et al.
# Submitted via: ExactAudioCopy v1.0b3
#
DISCID=260ca914
DTITLE=The Du Droppers - The Ultimate Du-Droppers [CD1]
DYEAR=1900
DGENRE=R&B
TTITLE0=Can't Do Sixty No More
TTITLE1=Chain Me Baby
TTITLE2=Come On and Love Me Baby
TTITLE3=Go Back
TTITLE4=I Wanna Know
TTITLE5=Laughing Blues
TTITLE6=Don't Worry About It (Big John Green)
TTITLE7=Ride Pretty Baby (Big John Green)
TTITLE8=I Found Out
TTITLE9=Little Girl Little Girl
TTITLE10=Whatever You're Doin'
TTITLE11=Somebody Work on my Baby's Mind
TTITLE12=Don't Pass Me By
TTITLE13=Get Lost
TTITLE14=The Note in the Bottle (Sunny Dale)
TTITLE15=Mama's Gone, Goodbye (Sunny Dale)
TTITLE16=Speed King
TTITLE17=Dead Broke
TTITLE18=How Much Longer
TTITLE19=Just Whisper
EXTD=
EXTT0=
EXTT1=
EXTT2=
EXTT3=
EXTT4=
EXTT5=
EXTT6=
EXTT7=
EXTT8=
EXTT9=
EXTT10=
EXTT11=
EXTT12=
EXTT13=
EXTT14=
EXTT15=
EXTT16=
EXTT17=
EXTT18=
EXTT19=
PLAYORDER=
